<svg id="Calque_1" data-name="Calque 1" xmlns="http://www.w3.org/2000/svg" viewBox="0 0 662.61 56.24"><title>Lapostrophe</title><path d="M466.79,79.75c-14.79,0-26.06-9-28.34-23.26-3.19-20,11.7-32.09,26-32.81,13.19-.67,23.71,5,28.61,15.54C501.8,58.17,489.21,80.23,466.79,79.75ZM441.86,51.82c.07,14.37,10.67,24.52,25.54,24.46A24.24,24.24,0,0,0,492,51.72c.06-14.11-10.89-24.67-25.52-24.61C452.38,27.16,441.8,37.81,441.86,51.82Z" transform="translate(-18.24 -23.59)"/><path d="M231.61,79.75c-14.43,0-25.75-8.77-28.15-22.6-3.75-21.57,12.85-33.33,26.92-33.54,11.9-.18,21.48,4,27.07,14.81C267.1,57.06,254.78,80.25,231.61,79.75Zm25.16-28.12c-.07-14.2-10.76-24.57-25.28-24.52-14.08,0-24.83,10.52-24.8,24.55,0,15.4,12.15,25,25.71,24.67C246.27,76,256.83,65.52,256.77,51.63Z" transform="translate(-18.24 -23.59)"/><path d="M575.76,24.15c3.45-.46,3.5-.43,3.51,2.69,0,6.75.05,13.49,0,20.24,0,1.88.46,2.61,2.5,2.6q16.25-.15,32.47,0c2.13,0,2.67-.7,2.64-2.72-.11-6.66,0-13.32,0-20,0-3.3,0-3.33,3.58-2.8v55c-3.4.73-3.57.6-3.58-2.58V53.18H579.46c-.06.94-.18,1.89-.18,2.85,0,6.83,0,13.66,0,20.48,0,3.15,0,3.17-3.51,2.74Z" transform="translate(-18.24 -23.59)"/><path d="M424.11,79.14c-2.79.85-4.38.13-5.81-2-3.32-5-6.88-9.82-10.47-14.62a4,4,0,0,0-2.76-1.34c-5.83-.11-11.67.06-17.5,0-2,0-2.55.66-2.51,2.58.11,5.14,0,10.29,0,15.61h-3.58V57.78c7,0,13.84.11,20.66-.06a26.9,26.9,0,0,0,7.84-1.2c6.93-2.3,10.13-7.76,9.59-15.62a13.25,13.25,0,0,0-11.44-12.68,105.52,105.52,0,0,0-13.91-.94c-4.15-.14-8.31,0-12.41,0-.94-2.95-.71-3.37,1.91-3.34,7.24.09,14.5,0,21.72.4,9.23.48,16,6,17.61,13.92,2.05,10.06-1.91,17.22-12.49,21.93Z" transform="translate(-18.24 -23.59)"/><path d="M311.59,28.7c-.34.78-.69,1.59-1.1,2.51-2.22-1-4.28-2-6.42-2.76a26.17,26.17,0,0,0-15.94-.75c-4.35,1.16-7.75,3.62-8.61,8.38-.95,5.3,1.16,9.19,6.55,11.15s11,3.32,16.44,5a24.76,24.76,0,0,1,3.95,1.51c4.15,2.11,7.18,5.11,7.54,10.07a13.11,13.11,0,0,1-6,12.62c-8.5,5.73-26,4-33.22-3.3a10,10,0,0,1-.65-.84l1.5-2.59A25.24,25.24,0,0,0,288.45,76a27.86,27.86,0,0,0,14.27-.73c5.36-1.87,7.9-5.76,7.45-11-.37-4.25-3.21-6.53-6.73-7.9s-7.15-2.16-10.73-3.23c-2.7-.8-5.46-1.49-8.09-2.49-4.88-1.85-8.49-4.9-9-10.54-.57-6.18,1.79-10.86,7.23-13.92C290.5,21.86,305.26,23.12,311.59,28.7Z" transform="translate(-18.24 -23.59)"/><path d="M131.46,79.22c-2.37.57-3.86.4-5-2.16-6.88-15.5-14-30.9-21-46.33-.33-.75-.73-1.47-1.3-2.59-.54,1.1-.94,1.88-1.3,2.68-7,15.29-13.94,30.55-20.77,45.89-1.07,2.42-2.38,3.37-5,2.49a11.81,11.81,0,0,1,.5-1.56q11.94-25.95,23.86-51.88c.58-1.28,1.26-2.26,2.74-1.82,1,.29,2.29.78,2.65,1.55C115,43,123.05,60.65,131.14,78.25,131.26,78.52,131.33,78.82,131.46,79.22Z" transform="translate(-18.24 -23.59)"/><path d="M146.8,27V24.27c.26-.13.41-.27.56-.27,8.89.24,17.89-.3,26.64.93,14.08,2,20,19,10.71,29.65-4.1,4.72-9.67,6.33-15.67,6.53-5.16.17-10.33,0-15.49,0h-2.93V79.27h-3.77V57.78c.93,0,1.89,0,2.86,0,7.65-.16,15.33,0,22.94-.6,7.36-.63,12.2-6.53,12.44-13.93.25-7.78-4-13.52-11.44-15a52,52,0,0,0-9.16-.91c-5.58-.15-11.16-.06-16.74-.08A5.27,5.27,0,0,1,146.8,27Z" transform="translate(-18.24 -23.59)"/><path d="M518.53,61.15V79.26h-3.68V57.78h2.54c6.09,0,12.17.07,18.25,0a26.48,26.48,0,0,0,6.65-.86c7.39-2.05,11.46-8.1,10.74-15.6-.76-8-6-13.16-14.55-13.63-6.73-.38-13.49-.29-20.23-.4-1.07,0-2.15,0-3.41,0v-3c.15-.07.3-.21.44-.21,8.89.24,17.84,0,26.66.91A15.7,15.7,0,0,1,555.82,36c2.2,6.72,1.63,13.23-3.28,18.75-4.08,4.59-9.58,6.18-15.48,6.37-5.16.17-10.33,0-15.5,0Z" transform="translate(-18.24 -23.59)"/><path d="M346.61,79.36h-3.92V27.28h-20v-3.2h43.62v3.14H346.61Z" transform="translate(-18.24 -23.59)"/><path d="M22.07,24v3.26c0,15.31.05,30.63,0,45.94,0,2.24.53,3,2.9,3,8.9-.13,17.81-.06,26.71,0,1.16,0,2.62-.44,2.62,1.64s-1.4,1.69-2.59,1.7c-10.32,0-20.64,0-31,0-1.81,0-2.47-.45-2.47-2.37q.11-25.47,0-50.94C18.22,23.14,20,24,22.07,24Z" transform="translate(-18.24 -23.59)"/><path d="M680.56,27.11H645.18v-3c.81-.06,1.61-.16,2.4-.16,10.25,0,20.49.05,30.73-.05C680.72,23.83,681.28,24.72,680.56,27.11Z" transform="translate(-18.24 -23.59)"/><path d="M645.12,52.84v-3h35.34c.73,2.87.57,3.12-2.15,3.12Q663,53,647.58,53C646.84,53,646.11,52.9,645.12,52.84Z" transform="translate(-18.24 -23.59)"/><path d="M645.12,79.34v-3h35.34c.72,2.88.57,3.12-2.16,3.12H647.57C646.84,79.48,646.1,79.4,645.12,79.34Z" transform="translate(-18.24 -23.59)"/><path d="M66,24h2.85V44H66Z" transform="translate(-18.24 -23.59)"/></svg>